<?xml version="1.0" encoding="UTF-8" standalone="no"?>
<!DOCTYPE svg PUBLIC "-//W3C//DTD SVG 1.1//EN"
 "http://www.w3.org/Graphics/SVG/1.1/DTD/svg11.dtd">
<!-- Generated by graphviz version 2.42.4 (0)
 -->
<!-- Title: KDAAArchitecture Pages: 1 -->
<svg width="1002pt" height="866pt"
 viewBox="0.00 0.00 1001.56 865.56" xmlns="http://www.w3.org/2000/svg" xmlns:xlink="http://www.w3.org/1999/xlink">
<g id="graph0" class="graph" transform="scale(1 1) rotate(0) translate(17.28 848.28)">
<title>KDAAArchitecture</title>
<polygon fill="#ffffff" stroke="transparent" points="-17.28,17.28 -17.28,-848.28 984.28,-848.28 984.28,17.28 -17.28,17.28"/>
<text text-anchor="middle" x="222.5" y="-814.2" font-family="Helvetica,sans-Serif" font-size="16.00">KDAA&#45;AI v0.1 — Provenance&#45;first system architecture</text>
<g id="clust1" class="cluster">
<title>cluster_inputs</title>
<path fill="#ffffff" stroke="#cbd5e1" stroke-width="1.1" d="M20,-719C20,-719 732,-719 732,-719 738,-719 744,-725 744,-731 744,-731 744,-785 744,-785 744,-791 738,-797 732,-797 732,-797 20,-797 20,-797 14,-797 8,-791 8,-785 8,-785 8,-731 8,-731 8,-725 14,-719 20,-719"/>
<text text-anchor="middle" x="81" y="-780.2" font-family="Helvetica,sans-Serif" font-size="16.00">Evidence inputs</text>
</g>
<g id="clust3" class="cluster">
<title>cluster_core</title>
<path fill="#ffffff" stroke="#94a3b8" stroke-width="1.2" d="M161,-106C161,-106 727,-106 727,-106 733,-106 739,-112 739,-118 739,-118 739,-547 739,-547 739,-553 733,-559 727,-559 727,-559 161,-559 161,-559 155,-559 149,-553 149,-547 149,-547 149,-118 149,-118 149,-112 155,-106 161,-106"/>
<text text-anchor="middle" x="444" y="-542.2" font-family="Helvetica,sans-Serif" font-size="16.00">Deterministic core — no remote model or human confirmation required</text>
</g>
<g id="clust4" class="cluster">
<title>cluster_empirical</title>
<path fill="#ffffff" stroke="#eab308" stroke-width="1.1" stroke-dasharray="5,2" d="M296,-8C296,-8 910,-8 910,-8 916,-8 922,-14 922,-20 922,-20 922,-86 922,-86 922,-92 916,-98 910,-98 910,-98 296,-98 296,-98 290,-98 284,-92 284,-86 284,-86 284,-20 284,-20 284,-14 290,-8 296,-8"/>
<text text-anchor="middle" x="536" y="-81.2" font-family="Helvetica,sans-Serif" font-size="16.00">Optional empirical extension — retained as versioned deltas</text>
</g>
<!-- local -->
<g id="node1" class="node">
<title>local</title>
<path fill="#eff6ff" stroke="#3b82f6" stroke-width="1.3" d="M723.5,-763C723.5,-763 592.5,-763 592.5,-763 586.5,-763 580.5,-757 580.5,-751 580.5,-751 580.5,-739 580.5,-739 580.5,-733 586.5,-727 592.5,-727 592.5,-727 723.5,-727 723.5,-727 729.5,-727 735.5,-733 735.5,-739 735.5,-739 735.5,-751 735.5,-751 735.5,-757 729.5,-763 723.5,-763"/>
<text text-anchor="middle" x="658" y="-748.6" font-family="Helvetica,sans-Serif" font-size="10.50">Local evidence</text>
<text text-anchor="middle" x="658" y="-736.6" font-family="Helvetica,sans-Serif" font-size="10.50">JSON / YAML / CV / PDF</text>
</g>
<!-- normalize -->
<g id="node5" class="node">
<title>normalize</title>
<path fill="#f8fafc" stroke="#334155" stroke-width="1.3" d="M481,-686C481,-686 271,-686 271,-686 265,-686 259,-680 259,-674 259,-674 259,-662 259,-662 259,-656 265,-650 271,-650 271,-650 481,-650 481,-650 487,-650 493,-656 493,-662 493,-662 493,-674 493,-674 493,-680 487,-686 481,-686"/>
<text text-anchor="middle" x="376" y="-671.6" font-family="Helvetica,sans-Serif" font-size="10.50">Normalize focal unit, strategic goals,</text>
<text text-anchor="middle" x="376" y="-659.6" font-family="Helvetica,sans-Serif" font-size="10.50">and typed evidence traces</text>
</g>
<!-- local&#45;&gt;normalize -->
<g id="edge9" class="edge">
<title>local&#45;&gt;normalize</title>
<path fill="none" stroke="#64748b" stroke-width="1.2" d="M633.5,-726.75C633.5,-703.98 633.5,-668 633.5,-668 633.5,-668 500.27,-668 500.27,-668"/>
<polygon fill="#64748b" stroke="#64748b" stroke-width="1.2" points="500.27,-665.48 493.07,-668 500.27,-670.52 500.27,-665.48"/>
</g>
<!-- openalex -->
<g id="node2" class="node">
<title>openalex</title>
<path fill="#eff6ff" stroke="#3b82f6" stroke-width="1.3" d="M535.5,-763C535.5,-763 404.5,-763 404.5,-763 398.5,-763 392.5,-757 392.5,-751 392.5,-751 392.5,-739 392.5,-739 392.5,-733 398.5,-727 404.5,-727 404.5,-727 535.5,-727 535.5,-727 541.5,-727 547.5,-733 547.5,-739 547.5,-739 547.5,-751 547.5,-751 547.5,-757 541.5,-763 535.5,-763"/>
<text text-anchor="middle" x="470" y="-748.6" font-family="Helvetica,sans-Serif" font-size="10.50">OpenAlex</text>
<text text-anchor="middle" x="470" y="-736.6" font-family="Helvetica,sans-Serif" font-size="10.50">author + works</text>
</g>
<!-- openalex&#45;&gt;normalize -->
<g id="edge10" class="edge">
<title>openalex&#45;&gt;normalize</title>
<path fill="none" stroke="#64748b" stroke-width="1.2" d="M442.75,-726.75C442.75,-726.75 442.75,-693.32 442.75,-693.32"/>
<polygon fill="#64748b" stroke="#64748b" stroke-width="1.2" points="445.27,-693.32 442.75,-686.12 440.23,-693.32 445.27,-693.32"/>
</g>
<!-- github -->
<g id="node3" class="node">
<title>github</title>
<path fill="#eff6ff" stroke="#3b82f6" stroke-width="1.3" d="M347.5,-763C347.5,-763 216.5,-763 216.5,-763 210.5,-763 204.5,-757 204.5,-751 204.5,-751 204.5,-739 204.5,-739 204.5,-733 210.5,-727 216.5,-727 216.5,-727 347.5,-727 347.5,-727 353.5,-727 359.5,-733 359.5,-739 359.5,-739 359.5,-751 359.5,-751 359.5,-757 353.5,-763 347.5,-763"/>
<text text-anchor="middle" x="282" y="-748.6" font-family="Helvetica,sans-Serif" font-size="10.50">GitHub</text>
<text text-anchor="middle" x="282" y="-736.6" font-family="Helvetica,sans-Serif" font-size="10.50">profile + repositories</text>
</g>
<!-- github&#45;&gt;normalize -->
<g id="edge11" class="edge">
<title>github&#45;&gt;normalize</title>
<path fill="none" stroke="#64748b" stroke-width="1.2" d="M309.25,-726.75C309.25,-726.75 309.25,-693.32 309.25,-693.32"/>
<polygon fill="#64748b" stroke="#64748b" stroke-width="1.2" points="311.77,-693.32 309.25,-686.12 306.73,-693.32 311.77,-693.32"/>
</g>
<!-- synthetic -->
<g id="node4" class="node">
<title>synthetic</title>
<path fill="#f0fdf4" stroke="#22c55e" stroke-width="1.3" d="M159.5,-763C159.5,-763 28.5,-763 28.5,-763 22.5,-763 16.5,-757 16.5,-751 16.5,-751 16.5,-739 16.5,-739 16.5,-733 22.5,-727 28.5,-727 28.5,-727 159.5,-727 159.5,-727 165.5,-727 171.5,-733 171.5,-739 171.5,-739 171.5,-751 171.5,-751 171.5,-757 165.5,-763 159.5,-763"/>
<text text-anchor="middle" x="94" y="-748.6" font-family="Helvetica,sans-Serif" font-size="10.50">Synthetic scenarios</text>
<text text-anchor="middle" x="94" y="-736.6" font-family="Helvetica,sans-Serif" font-size="10.50">and benchmark</text>
</g>
<!-- synthetic&#45;&gt;normalize -->
<g id="edge12" class="edge">
<title>synthetic&#45;&gt;normalize</title>
<path fill="none" stroke="#64748b" stroke-width="1.2" d="M94,-726.75C94,-703.98 94,-668 94,-668 94,-668 251.66,-668 251.66,-668"/>
<polygon fill="#64748b" stroke="#64748b" stroke-width="1.2" points="251.66,-670.52 258.86,-668 251.66,-665.48 251.66,-670.52"/>
</g>
<!-- dedup -->
<g id="node6" class="node">
<title>dedup</title>
<path fill="#ecfeff" stroke="#0891b2" stroke-width="1.3" d="M481,-615C481,-615 271,-615 271,-615 265,-615 259,-609 259,-603 259,-603 259,-579 259,-579 259,-573 265,-567 271,-567 271,-567 481,-567 481,-567 487,-567 493,-573 493,-579 493,-579 493,-603 493,-603 493,-609 487,-615 481,-615"/>
<text text-anchor="middle" x="376" y="-600.6" font-family="Helvetica,sans-Serif" font-size="10.50">Duplicate&#45;aware evidence control</text>
<text text-anchor="middle" x="376" y="-588.6" font-family="Helvetica,sans-Serif" font-size="10.50">retain every trace in provenance</text>
<text text-anchor="middle" x="376" y="-576.6" font-family="Helvetica,sans-Serif" font-size="10.50">select canonical analysis records</text>
</g>
<!-- normalize&#45;&gt;dedup -->
<g id="edge13" class="edge">
<title>normalize&#45;&gt;dedup</title>
<path fill="none" stroke="#64748b" stroke-width="1.2" d="M376,-649.75C376,-649.75 376,-622.44 376,-622.44"/>
<polygon fill="#64748b" stroke="#64748b" stroke-width="1.2" points="378.52,-622.44 376,-615.24 373.48,-622.44 378.52,-622.44"/>
</g>
<!-- evidence_graph -->
<g id="node7" class="node">
<title>evidence_graph</title>
<path fill="#fff7ed" stroke="#f97316" stroke-width="1.3" d="M481,-515C481,-515 271,-515 271,-515 265,-515 259,-509 259,-503 259,-503 259,-491 259,-491 259,-485 265,-479 271,-479 271,-479 481,-479 481,-479 487,-479 493,-485 493,-491 493,-491 493,-503 493,-503 493,-509 487,-515 481,-515"/>
<text text-anchor="middle" x="376" y="-494.6" font-family="Helvetica,sans-Serif" font-size="10.50">1. Provenance&#45;aware evidence graph</text>
</g>
<!-- dedup&#45;&gt;evidence_graph -->
<g id="edge14" class="edge">
<title>dedup&#45;&gt;evidence_graph</title>
<path fill="none" stroke="#64748b" stroke-width="1.2" d="M376,-566.79C376,-566.79 376,-522.39 376,-522.39"/>
<polygon fill="#64748b" stroke="#64748b" stroke-width="1.2" points="378.52,-522.39 376,-515.19 373.48,-522.39 378.52,-522.39"/>
</g>
<!-- discover -->
<g id="node8" class="node">
<title>discover</title>
<path fill="#fff7ed" stroke="#f97316" stroke-width="1.3" d="M481,-444C481,-444 271,-444 271,-444 265,-444 259,-438 259,-432 259,-432 259,-420 259,-420 259,-414 265,-408 271,-408 271,-408 481,-408 481,-408 487,-408 493,-414 493,-420 493,-420 493,-432 493,-432 493,-438 487,-444 481,-444"/>
<text text-anchor="middle" x="376" y="-423.6" font-family="Helvetica,sans-Serif" font-size="10.50">2. Falsifiable asset&#45;hypothesis discovery</text>
</g>
<!-- evidence_graph&#45;&gt;discover -->
<g id="edge1" class="edge">
<title>evidence_graph&#45;&gt;discover</title>
<path fill="none" stroke="#64748b" stroke-width="1.2" d="M376,-478.72C376,-478.72 376,-451.67 376,-451.67"/>
<polygon fill="#64748b" stroke="#64748b" stroke-width="1.2" points="378.52,-451.67 376,-444.47 373.48,-451.67 378.52,-451.67"/>
</g>
<!-- assess -->
<g id="node9" class="node">
<title>assess</title>
<path fill="#fff7ed" stroke="#f97316" stroke-width="1.3" d="M481,-373C481,-373 271,-373 271,-373 265,-373 259,-367 259,-361 259,-361 259,-349 259,-349 259,-343 265,-337 271,-337 271,-337 481,-337 481,-337 487,-337 493,-343 493,-349 493,-349 493,-361 493,-361 493,-367 487,-373 481,-373"/>
<text text-anchor="middle" x="376" y="-352.6" font-family="Helvetica,sans-Serif" font-size="10.50">3. Asset&#45;level assessment proxies</text>
</g>
<!-- discover&#45;&gt;assess -->
<g id="edge2" class="edge">
<title>discover&#45;&gt;assess</title>
<path fill="none" stroke="#64748b" stroke-width="1.2" d="M376,-407.72C376,-407.72 376,-380.67 376,-380.67"/>
<polygon fill="#64748b" stroke="#64748b" stroke-width="1.2" points="378.52,-380.67 376,-373.47 373.48,-380.67 378.52,-380.67"/>
</g>
<!-- match -->
<g id="node10" class="node">
<title>match</title>
<path fill="#fff7ed" stroke="#f97316" stroke-width="1.3" d="M481,-302C481,-302 271,-302 271,-302 265,-302 259,-296 259,-290 259,-290 259,-278 259,-278 259,-272 265,-266 271,-266 271,-266 481,-266 481,-266 487,-266 493,-272 493,-278 493,-278 493,-290 493,-290 493,-296 487,-302 481,-302"/>
<text text-anchor="middle" x="376" y="-281.6" font-family="Helvetica,sans-Serif" font-size="10.50">4. Asset–opportunity matching</text>
</g>
<!-- assess&#45;&gt;match -->
<g id="edge3" class="edge">
<title>assess&#45;&gt;match</title>
<path fill="none" stroke="#64748b" stroke-width="1.2" d="M376,-336.72C376,-336.72 376,-309.67 376,-309.67"/>
<polygon fill="#64748b" stroke="#64748b" stroke-width="1.2" points="378.52,-309.67 376,-302.47 373.48,-309.67 378.52,-309.67"/>
</g>
<!-- amplify -->
<g id="node11" class="node">
<title>amplify</title>
<path fill="#fff7ed" stroke="#f97316" stroke-width="1.3" d="M521.5,-231C521.5,-231 230.5,-231 230.5,-231 224.5,-231 218.5,-225 218.5,-219 218.5,-219 218.5,-207 218.5,-207 218.5,-201 224.5,-195 230.5,-195 230.5,-195 521.5,-195 521.5,-195 527.5,-195 533.5,-201 533.5,-207 533.5,-207 533.5,-219 533.5,-219 533.5,-225 527.5,-231 521.5,-231"/>
<text text-anchor="middle" x="376" y="-210.6" font-family="Helvetica,sans-Serif" font-size="10.50">5. Baseline, human/AI task map, gates, and gain vector</text>
</g>
<!-- match&#45;&gt;amplify -->
<g id="edge4" class="edge">
<title>match&#45;&gt;amplify</title>
<path fill="none" stroke="#64748b" stroke-width="1.2" d="M376,-265.72C376,-265.72 376,-238.67 376,-238.67"/>
<polygon fill="#64748b" stroke="#64748b" stroke-width="1.2" points="378.52,-238.67 376,-231.47 373.48,-238.67 378.52,-238.67"/>
</g>
<!-- outputs -->
<g id="node12" class="node">
<title>outputs</title>
<path fill="#f5f3ff" stroke="#8b5cf6" stroke-width="1.3" d="M525.5,-160C525.5,-160 226.5,-160 226.5,-160 220.5,-160 214.5,-154 214.5,-148 214.5,-148 214.5,-136 214.5,-136 214.5,-130 220.5,-124 226.5,-124 226.5,-124 525.5,-124 525.5,-124 531.5,-124 537.5,-130 537.5,-136 537.5,-136 537.5,-148 537.5,-148 537.5,-154 531.5,-160 525.5,-160"/>
<text text-anchor="middle" x="376" y="-145.6" font-family="Helvetica,sans-Serif" font-size="10.50">Versioned outputs</text>
<text text-anchor="middle" x="376" y="-133.6" font-family="Helvetica,sans-Serif" font-size="10.50">JSON • CSV • Markdown • HTML • GraphML • graph JSON</text>
</g>
<!-- amplify&#45;&gt;outputs -->
<g id="edge5" class="edge">
<title>amplify&#45;&gt;outputs</title>
<path fill="none" stroke="#64748b" stroke-width="1.2" d="M376,-194.72C376,-194.72 376,-167.67 376,-167.67"/>
<polygon fill="#64748b" stroke="#64748b" stroke-width="1.2" points="378.52,-167.67 376,-160.47 373.48,-167.67 378.52,-167.67"/>
</g>
<!-- human -->
<g id="node14" class="node">
<title>human</title>
<path fill="#fefce8" stroke="#ca8a04" stroke-width="1.3" stroke-dasharray="5,2" d="M448.5,-64C448.5,-64 303.5,-64 303.5,-64 297.5,-64 291.5,-58 291.5,-52 291.5,-52 291.5,-28 291.5,-28 291.5,-22 297.5,-16 303.5,-16 303.5,-16 448.5,-16 448.5,-16 454.5,-16 460.5,-22 460.5,-28 460.5,-28 460.5,-52 460.5,-52 460.5,-58 454.5,-64 448.5,-64"/>
<text text-anchor="middle" x="376" y="-49.6" font-family="Helvetica,sans-Serif" font-size="10.50">Human calibration</text>
<text text-anchor="middle" x="376" y="-37.6" font-family="Helvetica,sans-Serif" font-size="10.50">confirm • narrow • split</text>
<text text-anchor="middle" x="376" y="-25.6" font-family="Helvetica,sans-Serif" font-size="10.50">reject • defer</text>
</g>
<!-- outputs&#45;&gt;human -->
<g id="edge15" class="edge">
<title>outputs&#45;&gt;human</title>
<path fill="none" stroke="#ca8a04" stroke-width="1.2" stroke-dasharray="5,2" d="M376,-123.76C376,-123.76 376,-71.42 376,-71.42"/>
<polygon fill="#ca8a04" stroke="#ca8a04" stroke-width="1.2" points="378.52,-71.41 376,-64.22 373.48,-71.42 378.52,-71.41"/>
</g>
<!-- llm -->
<g id="node13" class="node">
<title>llm</title>
<path fill="#faf5ff" stroke="#a855f7" stroke-width="1.3" stroke-dasharray="5,2" d="M955,-769C955,-769 781,-769 781,-769 775,-769 769,-763 769,-757 769,-757 769,-733 769,-733 769,-727 775,-721 781,-721 781,-721 955,-721 955,-721 961,-721 967,-727 967,-733 967,-733 967,-757 967,-757 967,-763 961,-769 955,-769"/>
<text text-anchor="middle" x="868" y="-754.6" font-family="Helvetica,sans-Serif" font-size="10.50">Optional provenance&#45;gated LLM</text>
<text text-anchor="middle" x="868" y="-742.6" font-family="Helvetica,sans-Serif" font-size="10.50">receives permitted traces only</text>
<text text-anchor="middle" x="868" y="-730.6" font-family="Helvetica,sans-Serif" font-size="10.50">valid trace IDs required</text>
</g>
<!-- llm&#45;&gt;discover -->
<g id="edge6" class="edge">
<title>llm&#45;&gt;discover</title>
<path fill="none" stroke="#a855f7" stroke-width="1.2" stroke-dasharray="5,2" d="M841.5,-720.76C841.5,-646.32 841.5,-426 841.5,-426 841.5,-426 500.36,-426 500.36,-426"/>
<polygon fill="#a855f7" stroke="#a855f7" stroke-width="1.2" points="500.36,-423.48 493.16,-426 500.36,-428.52 500.36,-423.48"/>
</g>
<!-- outcomes -->
<g id="node15" class="node">
<title>outcomes</title>
<path fill="#fefce8" stroke="#ca8a04" stroke-width="1.3" stroke-dasharray="5,2" d="M674.5,-64C674.5,-64 505.5,-64 505.5,-64 499.5,-64 493.5,-58 493.5,-52 493.5,-52 493.5,-28 493.5,-28 493.5,-22 499.5,-16 505.5,-16 505.5,-16 674.5,-16 674.5,-16 680.5,-16 686.5,-22 686.5,-28 686.5,-28 686.5,-52 686.5,-52 686.5,-58 680.5,-64 674.5,-64"/>
<text text-anchor="middle" x="590" y="-49.6" font-family="Helvetica,sans-Serif" font-size="10.50">Outcome records</text>
<text text-anchor="middle" x="590" y="-37.6" font-family="Helvetica,sans-Serif" font-size="10.50">observed gain • realized value</text>
<text text-anchor="middle" x="590" y="-25.6" font-family="Helvetica,sans-Serif" font-size="10.50">captured value • causal caveats</text>
</g>
<!-- human&#45;&gt;outcomes -->
<g id="edge7" class="edge">
<title>human&#45;&gt;outcomes</title>
<path fill="none" stroke="#ca8a04" stroke-width="1.2" stroke-dasharray="5,2" d="M460.58,-40C460.58,-40 486.11,-40 486.11,-40"/>
<polygon fill="#ca8a04" stroke="#ca8a04" stroke-width="1.2" points="486.11,-42.52 493.31,-40 486.11,-37.48 486.11,-42.52"/>
</g>
<!-- update -->
<g id="node16" class="node">
<title>update</title>
<path fill="#fefce8" stroke="#ca8a04" stroke-width="1.3" stroke-dasharray="5,2" d="M902,-58C902,-58 732,-58 732,-58 726,-58 720,-52 720,-46 720,-46 720,-34 720,-34 720,-28 726,-22 732,-22 732,-22 902,-22 902,-22 908,-22 914,-28 914,-34 914,-34 914,-46 914,-46 914,-52 908,-58 902,-58"/>
<text text-anchor="middle" x="817" y="-43.6" font-family="Helvetica,sans-Serif" font-size="10.50">6. Closed&#45;loop portfolio learning</text>
<text text-anchor="middle" x="817" y="-31.6" font-family="Helvetica,sans-Serif" font-size="10.50">updates a future run</text>
</g>
<!-- outcomes&#45;&gt;update -->
<g id="edge8" class="edge">
<title>outcomes&#45;&gt;update</title>
<path fill="none" stroke="#ca8a04" stroke-width="1.2" stroke-dasharray="5,2" d="M686.6,-40C686.6,-40 712.56,-40 712.56,-40"/>
<polygon fill="#ca8a04" stroke="#ca8a04" stroke-width="1.2" points="712.56,-42.52 719.76,-40 712.56,-37.48 712.56,-42.52"/>
</g>
</g>
</svg>
